# This file uses centimeters as units for non-parametric coordinates.

mtllib brokenModel_colliderMesh.mtl
g default
v -42.841075 6.153788 98.323913
v 45.020077 6.153788 98.323913
v -42.841075 41.127867 93.187240
v 45.020077 41.127867 93.187240
v -42.841075 44.415996 -97.928315
v 45.020077 44.415996 -97.928315
v -42.841075 14.007980 -102.068253
v 45.020077 14.007980 -102.068253
v 45.020077 47.739807 65.775585
v -42.841075 47.739807 65.775585
v -42.841075 2.561964 63.950592
v 45.020077 2.561964 63.950592
v 45.020077 48.525867 -66.266396
v -42.841075 48.525867 -66.266396
v -42.841079 3.832018 -57.044602
v 45.020081 3.832018 -57.044602
v 45.020077 53.983520 19.955654
v -42.841075 53.983520 19.955654
v -42.841079 2.997490 22.459043
v 45.020081 2.997490 22.459043
v 45.020077 58.219980 -49.182183
v -42.841075 58.219980 -49.182183
v -42.841079 3.652662 -39.957924
v 45.020081 3.652662 -39.957924
v 45.020077 40.788771 41.874862
v -42.841075 40.788771 41.874862
v -42.841079 2.809059 40.410343
v 45.020081 2.809059 40.410343
v 45.020081 61.609613 -7.704072
v -42.841079 61.609613 -7.704072
v -42.841079 3.288355 -5.251032
v 45.020081 3.288355 -5.251032
vt 0.375000 0.000000
vt 0.625000 0.000000
vt 0.375000 0.250000
vt 0.625000 0.250000
vt 0.375000 0.500000
vt 0.625000 0.500000
vt 0.375000 0.750000
vt 0.625000 0.750000
vt 0.375000 1.000000
vt 0.625000 1.000000
vt 0.875000 0.000000
vt 0.875000 0.250000
vt 0.125000 0.000000
vt 0.125000 0.250000
vt 0.625000 0.289988
vt 0.664988 0.250000
vt 0.335012 0.250000
vt 0.375000 0.289988
vt 0.335012 0.000000
vt 0.375000 0.960012
vt 0.625000 0.960012
vt 0.664988 0.000000
vt 0.625000 0.442115
vt 0.817115 0.250000
vt 0.182885 0.250000
vt 0.375000 0.442115
vt 0.181954 0.000000
vt 0.375000 0.806954
vt 0.625000 0.806954
vt 0.818046 0.000000
vt 0.625000 0.337784
vt 0.712784 0.250000
vt 0.287216 0.250000
vt 0.375000 0.337784
vt 0.282526 0.000000
vt 0.375000 0.907526
vt 0.625000 0.907526
vt 0.717474 0.000000
vt 0.625000 0.422432
vt 0.797432 0.250000
vt 0.202568 0.250000
vt 0.375000 0.422432
vt 0.203569 0.000000
vt 0.375000 0.828569
vt 0.625000 0.828569
vt 0.796431 0.000000
vt 0.625000 0.317524
vt 0.692524 0.250000
vt 0.307476 0.250000
vt 0.375000 0.317524
vt 0.305234 0.000000
vt 0.375000 0.930234
vt 0.625000 0.930234
vt 0.694766 0.000000
vt 0.625000 0.371649
vt 0.746649 0.250000
vt 0.253351 0.250000
vt 0.375000 0.371649
vt 0.247473 0.000000
vt 0.375000 0.872473
vt 0.625000 0.872473
vt 0.752527 0.000000
vn 0.000000 0.145312 0.989386
vn 0.000000 0.145312 0.989386
vn 0.000000 0.145312 0.989386
vn 0.000000 0.145312 0.989386
vn 0.000000 0.972120 0.234484
vn 0.000000 0.972120 0.234484
vn 0.000000 0.999978 -0.006608
vn 0.000000 0.999978 -0.006608
vn 0.000000 0.134902 -0.990859
vn 0.000000 0.134902 -0.990859
vn 0.000000 0.134902 -0.990859
vn 0.000000 0.134902 -0.990859
vn 0.000000 -0.998336 0.057658
vn 0.000000 -0.998336 0.057658
vn 0.000000 -0.994585 0.103929
vn 0.000000 -0.994585 0.103929
vn 1.000000 -0.000000 0.000000
vn 1.000000 0.000000 0.000000
vn 1.000000 0.000000 0.000000
vn 1.000000 -0.000000 0.000000
vn -1.000000 0.000000 0.000000
vn -1.000000 -0.000000 0.000000
vn -1.000000 -0.000000 0.000000
vn -1.000000 0.000000 0.000000
vn 0.000000 0.990843 0.135019
vn 0.000000 0.990843 0.135019
vn -1.000000 0.000000 0.000000
vn -1.000000 0.000000 0.000000
vn 0.000000 -0.999945 -0.010496
vn 0.000000 -0.999945 -0.010496
vn 1.000000 0.000000 0.000000
vn 1.000000 0.000000 0.000000
vn 0.000000 0.962165 -0.272467
vn 0.000000 0.962165 -0.272467
vn 0.000000 0.991680 -0.128725
vn 0.000000 0.991680 -0.128725
vn -1.000000 0.000000 -0.000000
vn -1.000000 0.000000 -0.000000
vn -1.000000 0.000000 -0.000000
vn -1.000000 0.000000 -0.000000
vn 0.000000 -0.975398 -0.220453
vn 0.000000 -0.975398 -0.220453
vn 0.000000 -0.986385 -0.164455
vn 0.000000 -0.986385 -0.164455
vn 1.000000 0.000000 -0.000000
vn 1.000000 0.000000 -0.000000
vn 1.000000 0.000000 -0.000000
vn 1.000000 0.000000 -0.000000
vn 0.000000 0.921997 0.387196
vn 0.000000 0.921997 0.387196
vn 0.000000 0.998128 0.061161
vn 0.000000 0.998128 0.061161
vn -1.000000 0.000000 0.000000
vn -1.000000 0.000000 0.000000
vn -1.000000 0.000000 0.000000
vn -1.000000 0.000000 -0.000000
vn 0.000000 -0.999945 -0.010496
vn 0.000000 -0.999945 -0.010496
vn 0.000000 -0.999945 -0.010496
vn 0.000000 -0.999945 -0.010496
vn 1.000000 0.000000 0.000000
vn 1.000000 0.000000 0.000000
vn 1.000000 0.000000 0.000000
vn 1.000000 0.000000 -0.000000
vn 0.000000 0.975940 -0.218040
vn 0.000000 0.975940 -0.218040
vn -1.000000 0.000000 -0.000000
vn -1.000000 0.000000 -0.000000
vn 0.000000 -0.999945 -0.010496
vn 0.000000 -0.999945 -0.010496
vn 1.000000 0.000000 -0.000000
vn 1.000000 0.000000 -0.000000
s off
g pCube1
usemtl initialShadingGroup
f 1/1/1 2/2/2 4/4/3 3/3/4
s 1
f 3/3/5 4/4/6 9/15/7 10/18/8
s off
f 5/5/9 6/6/10 8/8/11 7/7/12
s 2
f 11/20/13 12/21/14 2/10/15 1/9/16
s 3
f 2/2/17 12/22/18 9/16/19 4/4/20
s 4
f 11/19/21 1/1/22 3/3/23 10/17/24
s 1
f 10/18/8 9/15/7 25/47/25 26/50/26
s 4
f 27/51/27 11/19/21 10/17/24 26/49/28
s 2
f 27/52/29 28/53/30 12/21/14 11/20/13
s 3
f 9/16/19 12/22/18 28/54/31 25/48/32
s 1
f 14/26/33 13/23/34 6/6/35 5/5/36
s 4
f 7/13/37 15/27/38 14/25/39 5/14/40
s 2
f 7/7/41 8/8/42 16/29/43 15/28/44
s 3
f 13/24/45 16/30/46 8/11/47 6/12/48
s 1
f 18/34/49 17/31/50 29/55/51 30/58/52
s 4
f 31/59/53 19/35/54 18/33/55 30/57/56
s 2
f 31/60/57 32/61/58 20/37/59 19/36/60
s 3
f 17/32/61 20/38/62 32/62/63 29/56/64
s 1
f 22/42/65 21/39/66 13/23/34 14/26/33
s 4
f 15/27/38 23/43/67 22/41/68 14/25/39
s 2
f 15/28/44 16/29/43 24/45/69 23/44/70
s 3
f 21/40/71 24/46/72 16/30/46 13/24/45
s 1
f 26/50/26 25/47/25 17/31/50 18/34/49
s 4
f 19/35/54 27/51/27 26/49/28 18/33/55
s 2
f 19/36/60 20/37/59 28/53/30 27/52/29
s 3
f 25/48/32 28/54/31 20/38/62 17/32/61
s 1
f 30/58/52 29/55/51 21/39/66 22/42/65
s 4
f 23/43/67 31/59/53 30/57/56 22/41/68
s 2
f 23/44/70 24/45/69 32/61/58 31/60/57
s 3
f 29/56/64 32/62/63 24/46/72 21/40/71
